<svg width="73" height="54" viewBox="0 0 73 54" version="1.1" xmlns="http://www.w3.org/2000/svg" xmlns:xlink="http://www.w3.org/1999/xlink">
<title>Auto</title>
<desc>Created using Figma</desc>
<g id="Canvas" transform="translate(23 18)">
<g id="Group">
<g id="Canvas">
<g id="model3 icon">
<g id="tesla">
<g id="Vector">
<use xlink:href="#path0_fill" transform="translate(-23 -18)" fill="#FFFFFF"/>
</g>
</g>
</g>
</g>
</g>
</g>
<defs>
<path id="path0_fill" fill-rule="evenodd" d="M 66.6522 54L 65.0652 54C 62.4361 54 60.3043 51.8665 60.3043 49.2353L 17.4565 49.2353C 15.5976 49.2353 13.9982 50.5284 12.4399 51.789C 11.7937 52.3114 11.1552 52.8282 10.5074 53.2451C 9.76583 53.7227 8.88247 54 7.93478 54L 6.34783 54C 3.71865 54 1.58696 51.8665 1.58696 49.2353L 1.58696 27.7709C 1.58696 25.2434 2.59042 22.8196 4.37575 21.0325L 6.34783 19.0588L 3.13129 19.0588C 1.40176 19.0588 0 17.6559 0 15.9254C 0 14.9665 0.651676 14.1309 1.58076 13.8986L 4.37575 13.1991C 5.37767 12.9486 6.34783 13.7067 6.34783 14.74L 6.34783 17.4706L 7.93478 17.4706L 10.7825 7.02221C 11.9123 2.87636 15.6743 0 19.9687 0L 53.0313 0C 57.3256 0 61.0878 2.87636 62.2176 7.02221L 65.0652 17.4706L 66.6522 17.4706L 66.6522 14.74C 66.6522 13.7067 67.6223 12.9486 68.6243 13.1991L 71.4192 13.8986C 72.3484 14.1309 73 14.9665 73 15.9254C 73 17.6559 71.5982 19.0588 69.8688 19.0588L 66.6522 19.0588L 68.6243 21.0325C 70.4096 22.8196 71.413 25.2434 71.413 27.7709L 71.413 49.2353C 71.413 51.8665 69.2813 54 66.6522 54ZM 12.247 8.37934L 9.70538 16.8583C 9.6031 17.1995 9.78986 17.5602 10.1277 17.6726C 12.8801 18.5908 15.7619 19.0588 18.6623 19.0588L 54.4936 19.0588C 57.3939 19.0588 60.2756 18.5908 63.028 17.6726C 63.3659 17.5602 63.5527 17.1995 63.4503 16.8583L 60.9088 8.37934C 59.7007 4.34865 55.9937 1.58824 51.7884 1.58824L 21.3674 1.58824C 17.1621 1.58824 13.455 4.34865 12.247 8.37934ZM 9.25827 21.1577C 11.9076 23.76 14.1323 25.7674 18.2508 27.4773C 18.6537 27.6448 18.8134 28.1396 18.5707 28.5033C 17.8834 29.5355 16.6894 30.1121 15.4542 30.0089L 11.0924 29.6452C 9.05371 29.4754 7.1413 28.5874 5.6946 27.1399C 4.69811 26.1424 4.56793 24.57 5.38697 23.4222L 6.85537 21.3651C 7.42181 20.571 8.56244 20.4741 9.25827 21.1577ZM 63.4729 21.1577C 60.8234 23.7595 58.5981 25.7674 54.4804 27.4769C 54.0767 27.6445 53.9178 28.1392 54.1603 28.5029C 54.8476 29.5351 56.041 30.1121 57.2761 30.0089L 61.6387 29.6452C 63.6774 29.4749 65.5899 28.5874 67.0365 27.1396C 68.033 26.1424 68.1631 24.57 67.3441 23.4222L 65.8757 21.3651C 65.3085 20.571 64.1687 20.4741 63.4729 21.1577ZM 14.2826 39.7059C 10.1556 38.9513 8.02776 38.3073 4.76087 36.5294L 4.46022 37.7327C 4.20993 38.735 4.96776 39.7059 5.9999 39.7059L 14.2826 39.7059ZM 58.3687 39.7059C 62.4958 38.9513 64.6236 38.3073 67.8905 36.5294L 68.191 37.7327C 68.4413 38.735 67.6835 39.7059 66.6514 39.7059L 58.3687 39.7059ZM 18.5785 43.3477C 18.8761 43.0499 19.2798 42.8824 19.7006 42.8824L 53.2994 42.8824C 53.7202 42.8824 54.1239 43.0499 54.4215 43.3477L 55.776 44.7033C 56.2757 45.2034 55.9216 46.0588 55.215 46.0588L 17.785 46.0588C 17.0783 46.0588 16.7243 45.2034 17.224 44.7033L 18.5785 43.3477Z"/>
</defs>
</svg>
