<svg width="237" height="192" viewBox="0 0 237 192" version="1.1" xmlns="http://www.w3.org/2000/svg" xmlns:xlink="http://www.w3.org/1999/xlink">
<title>schraubenschl&#195;&#188;ssel</title>
<desc>Created using Figma</desc>
<g id="Canvas" transform="translate(-91 2108)">
<g id="Group">
<g id="Canvas">
<g id="service">
<g id="Union">
<g id="Vector">
<use xlink:href="#path0_fill" transform="matrix(0.777889 0.628402 -0.777889 0.628402 251.244 -2120)" fill="#FFFFFF"/>
</g>
</g>
</g>
</g>
</g>
</g>
<defs>
<path id="path0_fill" fill-rule="evenodd" d="M 36.9937 24.5767C 42.4254 18.5087 41.9087 9.19034 35.8406 3.7586C 29.7726 -1.67311 20.4542 -1.15641 15.0225 4.91163C 6.51601 14.7315 0.28253 30.0415 0 44.2317C 0.00254532 66.0629 11.8612 85.1197 29.49 95.3159L 29.49 228.533C 29.49 236.678 36.0901 243.278 44.2351 243.278L 73.7225 243.276C 81.8649 243.278 88.4673 236.675 88.4651 228.533L 88.4651 95.3211C 106.094 85.1248 117.952 66.0629 117.955 44.2317C 117.672 30.0415 111.439 14.7315 102.933 4.91163C 97.501 -1.15641 88.1827 -1.67311 82.1148 3.7586C 76.0462 9.19034 75.5301 18.5087 80.9618 24.5767C 86.4621 30.4081 88.7452 35.766 88.4651 44.2317C 88.4651 60.5166 75.2625 73.7193 58.9776 73.7193C 42.6926 73.7193 29.49 60.5166 29.49 44.2317C 29.2075 35.7685 31.4932 30.4081 36.9937 24.5767Z"/>
</defs>
</svg>
